<svg version="1.1" xmlns="http://www.w3.org/2000/svg" viewBox="0 0 65.21276595744712 66.27659574468089" width="130.42553191489424" height="132.55319148936178">
  <!-- svg-source:excalidraw -->
  
  <defs>
    <style>
      @font-face {
        font-family: "Virgil";
        src: url("https://excalidraw.com/Virgil.woff2");
      }
      @font-face {
        font-family: "Cascadia";
        src: url("https://excalidraw.com/Cascadia.woff2");
      }
    </style>
  </defs>
  <g stroke-linecap="round" transform="translate(10 10) rotate(0 22.60638297872356 23.138297872340445)"><path d="M45.21 23.14 C45.21 24.48, 45.1 25.84, 44.87 27.16 C44.64 28.48, 44.3 29.79, 43.85 31.05 C43.4 32.31, 42.84 33.55, 42.18 34.71 C41.53 35.87, 40.76 36.99, 39.92 38.01 C39.08 39.04, 38.14 40, 37.14 40.86 C36.14 41.72, 35.04 42.51, 33.91 43.18 C32.78 43.85, 31.57 44.42, 30.34 44.88 C29.11 45.34, 27.82 45.69, 26.53 45.93 C25.24 46.16, 23.91 46.28, 22.61 46.28 C21.3 46.28, 19.97 46.16, 18.68 45.93 C17.39 45.69, 16.1 45.34, 14.87 44.88 C13.64 44.42, 12.44 43.85, 11.3 43.18 C10.17 42.51, 9.08 41.72, 8.08 40.86 C7.07 40, 6.13 39.04, 5.29 38.01 C4.45 36.99, 3.68 35.87, 3.03 34.71 C2.37 33.55, 1.81 32.31, 1.36 31.05 C0.92 29.79, 0.57 28.48, 0.34 27.16 C0.12 25.84, 0 24.48, 0 23.14 C0 21.8, 0.12 20.44, 0.34 19.12 C0.57 17.8, 0.92 16.48, 1.36 15.22 C1.81 13.97, 2.37 12.73, 3.03 11.57 C3.68 10.41, 4.45 9.29, 5.29 8.27 C6.13 7.24, 7.07 6.27, 8.08 5.41 C9.08 4.55, 10.17 3.77, 11.3 3.1 C12.44 2.43, 13.64 1.85, 14.87 1.4 C16.1 0.94, 17.39 0.58, 18.68 0.35 C19.97 0.12, 21.3 0, 22.61 0 C23.91 0, 25.24 0.12, 26.53 0.35 C27.82 0.58, 29.11 0.94, 30.34 1.4 C31.57 1.85, 32.78 2.43, 33.91 3.1 C35.04 3.77, 36.14 4.55, 37.14 5.41 C38.14 6.27, 39.08 7.24, 39.92 8.27 C40.76 9.29, 41.53 10.41, 42.18 11.57 C42.84 12.73, 43.4 13.97, 43.85 15.22 C44.3 16.48, 44.64 17.8, 44.87 19.12 C45.1 20.44, 45.16 22.47, 45.21 23.14 C45.27 23.81, 45.27 22.47, 45.21 23.14" stroke="none" stroke-width="0" fill="#bbff0e"></path><path d="M45.21 23.14 C45.21 24.48, 45.1 25.84, 44.87 27.16 C44.64 28.48, 44.3 29.79, 43.85 31.05 C43.4 32.31, 42.84 33.55, 42.18 34.71 C41.53 35.87, 40.76 36.99, 39.92 38.01 C39.08 39.04, 38.14 40, 37.14 40.86 C36.14 41.72, 35.04 42.51, 33.91 43.18 C32.78 43.85, 31.57 44.42, 30.34 44.88 C29.11 45.34, 27.82 45.69, 26.53 45.93 C25.24 46.16, 23.91 46.28, 22.61 46.28 C21.3 46.28, 19.97 46.16, 18.68 45.93 C17.39 45.69, 16.1 45.34, 14.87 44.88 C13.64 44.42, 12.44 43.85, 11.3 43.18 C10.17 42.51, 9.08 41.72, 8.08 40.86 C7.07 40, 6.13 39.04, 5.29 38.01 C4.45 36.99, 3.68 35.87, 3.03 34.71 C2.37 33.55, 1.81 32.31, 1.36 31.05 C0.92 29.79, 0.57 28.48, 0.34 27.16 C0.12 25.84, 0 24.48, 0 23.14 C0 21.8, 0.12 20.44, 0.34 19.12 C0.57 17.8, 0.92 16.48, 1.36 15.22 C1.81 13.97, 2.37 12.73, 3.03 11.57 C3.68 10.41, 4.45 9.29, 5.29 8.27 C6.13 7.24, 7.07 6.27, 8.08 5.41 C9.08 4.55, 10.17 3.77, 11.3 3.1 C12.44 2.43, 13.64 1.85, 14.87 1.4 C16.1 0.94, 17.39 0.58, 18.68 0.35 C19.97 0.12, 21.3 0, 22.61 0 C23.91 0, 25.24 0.12, 26.53 0.35 C27.82 0.58, 29.11 0.94, 30.34 1.4 C31.57 1.85, 32.78 2.43, 33.91 3.1 C35.04 3.77, 36.14 4.55, 37.14 5.41 C38.14 6.27, 39.08 7.24, 39.92 8.27 C40.76 9.29, 41.53 10.41, 42.18 11.57 C42.84 12.73, 43.4 13.97, 43.85 15.22 C44.3 16.48, 44.64 17.8, 44.87 19.12 C45.1 20.44, 45.16 22.47, 45.21 23.14 C45.27 23.81, 45.27 22.47, 45.21 23.14" stroke="#bbff0e" stroke-width="2" fill="none"></path></g><g stroke-linecap="round"><g transform="translate(44.04255319148979 19.042553191489333) rotate(0 -11.755319148935996 14.095744680851112)"><path d="M0 0 C-3.92 4.7, -19.59 23.49, -23.51 28.19 M0 0 C-3.92 4.7, -19.59 23.49, -23.51 28.19" stroke="#343a40" stroke-width="4" fill="none"></path></g></g><g stroke-linecap="round"><g transform="translate(46.59574468084975 44.94680851063799) rotate(0 -13.67021276595733 -12.074468085106332)"><path d="M0 0 C-4.56 -4.02, -22.78 -20.12, -27.34 -24.15 M0 0 C-4.56 -4.02, -22.78 -20.12, -27.34 -24.15" stroke="#343a40" stroke-width="4" fill="none"></path></g></g></svg>