<?xml version="1.0" encoding="UTF-8" standalone="no"?>
<!-- Created with Inkscape (http://www.inkscape.org/) -->

<svg
   width="210mm"
   height="297mm"
   viewBox="0 0 210 297"
   version="1.1"
   id="svg5"
   inkscape:version="1.1.1 (3bf5ae0d25, 2021-09-20)"
   sodipodi:docname="markerIcon.svg"
   xmlns:inkscape="http://www.inkscape.org/namespaces/inkscape"
   xmlns:sodipodi="http://sodipodi.sourceforge.net/DTD/sodipodi-0.dtd"
   xmlns="http://www.w3.org/2000/svg"
   xmlns:svg="http://www.w3.org/2000/svg">
  <sodipodi:namedview
     id="namedview7"
     pagecolor="#ffffff"
     bordercolor="#666666"
     borderopacity="1.0"
     inkscape:pageshadow="2"
     inkscape:pageopacity="0.0"
     inkscape:pagecheckerboard="0"
     inkscape:document-units="mm"
     showgrid="false"
     inkscape:zoom="5.6568543"
     inkscape:cx="395.62624"
     inkscape:cy="431.33514"
     inkscape:window-width="1920"
     inkscape:window-height="1018"
     inkscape:window-x="2553"
     inkscape:window-y="-138"
     inkscape:window-maximized="1"
     inkscape:current-layer="layer1" />
  <defs
     id="defs2">
    <style
       id="style9">
      @font-face {
        font-family: &quot;Virgil&quot;;
        src: url(&quot;https://excalidraw.com/Virgil.woff2&quot;);
      }
      @font-face {
        font-family: &quot;Cascadia&quot;;
        src: url(&quot;https://excalidraw.com/Cascadia.woff2&quot;);
      }
    </style>
  </defs>
  <g
     inkscape:label="Ebene 1"
     inkscape:groupmode="layer"
     id="layer1">
    <g
       id="g33"
       transform="matrix(0.52916668,0,0,0.52916668,79.186484,100.03941)">
      <g
         stroke-linecap="round"
         id="g17">
        <g
           transform="translate(27.59771,63.108297)"
           id="g15">
          <path
             d="m 0,0 c -1.79,-2.67 -7.9,-11.11 -10.72,-16 -2.82,-4.89 -5.21,-9.06 -6.18,-13.35 -0.98,-4.29 -0.99,-8.83 0.33,-12.39 1.33,-3.56 4.62,-7.11 7.62,-9 3,-1.89 7.14,-2.54 10.36,-2.33 3.22,0.2 6.45,1.61 8.96,3.56 2.52,1.94 5,5.11 6.13,8.12 1.12,3.02 1.23,6.41 0.62,9.98 -0.61,3.57 -2.73,8.04 -4.3,11.43 -1.56,3.4 -2.93,5.62 -5.07,8.95 C 5.61,-7.7 1.29,-1.84 0,0 m 0,0 c -1.79,-2.67 -7.9,-11.11 -10.72,-16 -2.82,-4.89 -5.21,-9.06 -6.18,-13.35 -0.98,-4.29 -0.99,-8.83 0.33,-12.39 1.33,-3.56 4.62,-7.11 7.62,-9 3,-1.89 7.14,-2.54 10.36,-2.33 3.22,0.2 6.45,1.61 8.96,3.56 2.52,1.94 5,5.11 6.13,8.12 1.12,3.02 1.23,6.41 0.62,9.98 -0.61,3.57 -2.73,8.04 -4.3,11.43 -1.56,3.4 -2.93,5.62 -5.07,8.95 C 5.61,-7.7 1.29,-1.84 0,0"
             stroke="#c74343"
             stroke-width="2"
             fill="none"
             id="path13" />
        </g>
      </g>
      <g
         stroke-linecap="round"
         transform="translate(19.506894,19.921563)"
         id="g21">
        <path
           d="m 16.33,8.18 c 0,0.47 -0.05,0.95 -0.13,1.42 -0.08,0.47 -0.2,0.93 -0.37,1.38 -0.16,0.44 -0.36,0.88 -0.6,1.29 -0.23,0.41 -0.51,0.8 -0.81,1.17 -0.31,0.36 -0.65,0.7 -1.01,1 -0.36,0.31 -0.76,0.59 -1.16,0.82 -0.41,0.24 -0.85,0.44 -1.29,0.6 -0.45,0.17 -0.91,0.29 -1.38,0.37 -0.46,0.09 -0.94,0.13 -1.42,0.13 -0.47,0 -0.95,-0.04 -1.41,-0.13 C 6.28,16.15 5.82,16.03 5.37,15.86 4.93,15.7 4.49,15.5 4.08,15.26 3.67,15.03 3.28,14.75 2.92,14.44 2.55,14.14 2.21,13.8 1.91,13.44 1.61,13.07 1.33,12.68 1.09,12.27 0.86,11.86 0.65,11.42 0.49,10.98 0.33,10.53 0.21,10.07 0.12,9.6 0.04,9.13 0,8.65 0,8.18 0,7.71 0.04,7.22 0.12,6.76 0.21,6.29 0.33,5.83 0.49,5.38 0.65,4.94 0.86,4.5 1.09,4.09 1.33,3.68 1.61,3.28 1.91,2.92 2.21,2.56 2.55,2.22 2.92,1.91 3.28,1.61 3.67,1.33 4.08,1.1 4.49,0.86 4.93,0.66 5.37,0.49 5.82,0.33 6.28,0.21 6.75,0.12 7.21,0.04 7.69,0 8.16,0 c 0.48,0 0.96,0.04 1.42,0.12 0.47,0.09 0.93,0.21 1.38,0.37 0.44,0.17 0.88,0.37 1.29,0.61 0.4,0.23 0.8,0.51 1.16,0.81 0.36,0.31 0.7,0.65 1.01,1.01 0.3,0.36 0.58,0.76 0.81,1.17 0.24,0.41 0.44,0.85 0.6,1.29 0.17,0.45 0.29,0.91 0.37,1.38 0.08,0.46 0.11,1.18 0.13,1.42 0.02,0.24 0.02,-0.24 0,0"
           stroke="#c74343"
           stroke-width="2"
           fill="none"
           id="path19" />
      </g>
    </g>
    <path
       style="fill:#f78f8f;fill-opacity:1;stroke:none;stroke-width:0.194544"
       d="m 346.36797,489.15133 c -12.68895,-18.23078 -9.13994,-13.43534 -13.45438,-20.97663 -6.20659,-10.84864 -8.74121,-16.50655 -10.22174,-22.61204 -2.01636,-8.31518 -2.21909,-16.84588 0.0639,-23.25047 2.60553,-7.30935 10.1602,-15.86933 17.34541,-19.23188 2.00716,-0.93932 5.71823,-2.17407 8.32789,-2.65222 2.77322,-0.50812 9.84898,-0.42768 12.17885,0.0747 6.74041,1.45333 13.25606,5.12579 17.98581,10.41662 6.24284,6.9834 8.90496,13.78481 8.88639,22.42834 -0.017,7.89426 -1.66223,13.74912 -7.08902,25.78148 -4.59082,10.17885 -6.99144,14.37974 -13.26399,23.83707 -2.74528,4.13914 -12.37147,17.76942 -12.6242,17.85786 -0.0913,0.0319 -2.06957,-2.95841 -4.58416,-6.57124 z m 12.28433,-36.96198 c 10.72769,-2.43996 16.62917,-13.43012 13.21176,-23.89926 -0.88737,-2.71845 -2.21284,-4.86608 -4.20947,-6.88904 -5.10359,-5.17089 -12.56853,-6.77534 -19.4917,-4.27024 -2.32097,0.83982 -4.40046,2.29609 -6.24747,4.03363 -2.57398,2.42142 -3.80807,4.74966 -4.84547,8.16213 -0.49666,1.63373 -0.66346,2.13382 -0.73442,5.10295 0.35711,3.88852 0.49145,4.91201 1.91514,7.84105 2.79896,5.75849 7.78011,9.26425 14.4662,10.25588 1.15969,0.172 4.52057,-0.0153 5.93543,-0.3371 z"
       id="path72"
       transform="scale(0.26458333)"
       sodipodi:nodetypes="sssssssssssssssssssscsss" />
  </g>
</svg>
